<svg xmlns="http://www.w3.org/2000/svg" xmlns:xlink="http://www.w3.org/1999/xlink" viewBox="0,0,256,256" width="48px" height="48px"><g fill="#1d1e1a" fill-rule="nonzero" stroke="none" stroke-width="1" stroke-linecap="butt" stroke-linejoin="miter" stroke-miterlimit="10" stroke-dasharray="" stroke-dashoffset="0" font-family="none" font-weight="none" font-size="none" text-anchor="none" style="mix-blend-mode: normal"><g transform="scale(10.66667,10.66667)"><path d="M8.5,1h-7c-0.27637,0 -0.5,0.22363 -0.5,0.5v7c0,0.27637 0.22363,0.5 0.5,0.5h1c0.27637,0 0.5,-0.22363 0.5,-0.5v-5.5h5.5c0.27637,0 0.5,-0.22363 0.5,-0.5v-1c0,-0.27637 -0.22363,-0.5 -0.5,-0.5z"></path><path d="M22.5,1h-7c-0.27637,0 -0.5,0.22363 -0.5,0.5v1c0,0.27637 0.22363,0.5 0.5,0.5h5.5v5.5c0,0.27637 0.22363,0.5 0.5,0.5h1c0.27637,0 0.5,-0.22363 0.5,-0.5v-7c0,-0.27637 -0.22363,-0.5 -0.5,-0.5z"></path><path d="M22.5,15h-1c-0.27637,0 -0.5,0.22363 -0.5,0.5v5.5h-5.5c-0.27637,0 -0.5,0.22363 -0.5,0.5v1c0,0.27637 0.22363,0.5 0.5,0.5h7c0.27637,0 0.5,-0.22363 0.5,-0.5v-7c0,-0.27637 -0.22363,-0.5 -0.5,-0.5z"></path><path d="M8.5,21h-5.5v-5.5c0,-0.27637 -0.22363,-0.5 -0.5,-0.5h-1c-0.27637,0 -0.5,0.22363 -0.5,0.5v7c0,0.27637 0.22363,0.5 0.5,0.5h7c0.27637,0 0.5,-0.22363 0.5,-0.5v-1c0,-0.27637 -0.22363,-0.5 -0.5,-0.5z"></path></g></g></svg>