<svg xmlns="http://www.w3.org/2000/svg" xmlns:xlink="http://www.w3.org/1999/xlink" viewBox="0,0,256,256" width="48px" height="48px"><g fill="#1d1e1a" fill-rule="nonzero" stroke="none" stroke-width="1" stroke-linecap="butt" stroke-linejoin="miter" stroke-miterlimit="10" stroke-dasharray="" stroke-dashoffset="0" font-family="none" font-weight="none" font-size="none" text-anchor="none" style="mix-blend-mode: normal"><g transform="scale(5.33333,5.33333)"><path d="M10.5,5c-2.4675,0 -4.5,2.0325 -4.5,4.5v29c0,2.4675 2.0325,4.5 4.5,4.5h5c2.4675,0 4.5,-2.0325 4.5,-4.5v-29c0,-2.4675 -2.0325,-4.5 -4.5,-4.5zM32.5,5c-2.4675,0 -4.5,2.0325 -4.5,4.5v29c0,2.4675 2.0325,4.5 4.5,4.5h5c2.4675,0 4.5,-2.0325 4.5,-4.5v-29c0,-2.4675 -2.0325,-4.5 -4.5,-4.5zM10.5,8h5c0.8465,0 1.5,0.6535 1.5,1.5v29c0,0.8465 -0.6535,1.5 -1.5,1.5h-5c-0.8465,0 -1.5,-0.6535 -1.5,-1.5v-29c0,-0.8465 0.6535,-1.5 1.5,-1.5zM32.5,8h5c0.8465,0 1.5,0.6535 1.5,1.5v29c0,0.8465 -0.6535,1.5 -1.5,1.5h-5c-0.8465,0 -1.5,-0.6535 -1.5,-1.5v-29c0,-0.8465 0.6535,-1.5 1.5,-1.5z"></path></g></g></svg>